<mxfile host="app.diagrams.net" agent="Mozilla/5.0 (Macintosh; Intel Mac OS X 10_15_7) AppleWebKit/537.36 (KHTML, like Gecko) Chrome/129.0.0.0 Safari/537.36" version="24.7.16">
  <diagram name="페이지-1" id="bL7r0a0wsoDdOwqTs_IH">
    <mxGraphModel dx="1434" dy="785" grid="1" gridSize="10" guides="1" tooltips="1" connect="1" arrows="1" fold="1" page="1" pageScale="1" pageWidth="980" pageHeight="1390" math="0" shadow="0">
      <root>
        <mxCell id="0" />
        <mxCell id="1" parent="0" />
        <mxCell id="ehwKiubLIth1W-K0A4Ap-32" value="" style="group" vertex="1" connectable="0" parent="1">
          <mxGeometry x="580" y="130" width="369.4" height="398.1" as="geometry" />
        </mxCell>
        <mxCell id="ehwKiubLIth1W-K0A4Ap-31" value="" style="rounded=1;whiteSpace=wrap;html=1;" vertex="1" parent="ehwKiubLIth1W-K0A4Ap-32">
          <mxGeometry x="10" y="68.1" width="359.4" height="330" as="geometry" />
        </mxCell>
        <mxCell id="ehwKiubLIth1W-K0A4Ap-30" value="" style="shape=image;verticalLabelPosition=bottom;labelBackgroundColor=default;verticalAlign=top;aspect=fixed;imageAspect=0;image=data:image/png,iVBORw0KGgoAAAANSUhEUgAAAW4AAACKCAMAAAC93lCdAAAAqFBMVEX///8AaEoAZkcAY0MAYD8AXToAXz0AYkEAZEUAZ0oAZUTd5+MAWzfJ29UAYUH1+vmiwrdalIFfkH2sx756pZa90MkxfGKJrqFvoZDf7ekYdVodcFTR4No1gm3u9vTg6eXK3thlmIYAVjBLiXSbvLCrxLu20chtno2TtamJqZxTjnoAUypOhG83emIqdlx4o5Q1gGKTuKwLcU9Vk37A2NC2ycFCf2hOh3eK+zJaAAAViklEQVR4nO1daUPquhYlSZMOFArKIBaLDAqHc4Hnvcr7///sJTstzdSC7+gVhfWJoZR0dWdnT9ltNGx0Wo4Pr/gkTHycfPUYLggb4q+/egyXg56HEF189SguBc8x4vDHXz2Oy0AGbCOcXtX3v4Bki0Pgm8y/eiiXgKmPctDhV4/l52PIwoJuFN9+9Wh+OvoMKaDNrx7Pz8aIYZVujK7L5WcijZAGcvV2PhF3HjJw9XY+D31qso1Q+6q+PwlJim26g81XD+unYufbbHN18vLV4/qZaDlUCVjf2VeP7EdiE7npvlonn4FOhXBzdfL61WP7eUh8xzopga+r5YdjZZncJdg1dvLBSFg12wgPrr78x2LlNAIP2vsq3h+KBFVqbhDv/VcP8GfhqUZzc4TxNXH5kdjXCjd35adfPcKfhGat5hZg18Xy4zBsH6X76avH+HOQDI7oEr5YPnz1IH8OmpX+ewnqDlQ1S0xq/2Ny6oHnAGWw+ZAnWYU2NY+UB9eefWGqbjzfmvLu9Z0/RbRAXJvXTFBcHPj714kX/XWYzqiOmKLNzcIhJ4l5pDjYv58Pa7IyN8TgNupuTLr9nvOnnMXiSPZccwGHDL8f/16979q/ANPf1FKvmHj+vmOKVPI7dpgZGPvevjKwZxndpGdZhnjr/OloNN4H+Y/qArXzPLrr9Zqj84+fJ9njIL+qdgxgPsYojDxs5m6zbFGoYiYPpYyIOjTMbtzTfRSbdPu/5hbd4ahibFkxN1j1BCosTfxtCuHyTCIdZgKj/mqOPc4iZqnl8XVAXHHUHwEe33YIPvGRU7CerfCU/+u/1mTyKzc0BMUR1UVuvZxu8n3q4LoYpnn5QbZI+VWE2CpOkLLE1NuwgnA2uXfxba2UnJW1RXd1FLaQ7uoioEPSOXCvAOcIoJs9qh8lQ8Eijnf6kWPg7177rAWk+C5nvGeulMh/mQbmZ9WCyX+e1t+RW4ZkDOzb0W1M6TFcBtX5HgN/97qsdaDWMnaoBFuSvc6ddQtIZdgkQGQ3FUthpS/EVwIMrtR3p7sxwuLjWNMn48hBdwNsO1esyfYp2W3PUjBRpeHB6Z62QP9XBA6bMReKp/ZPoJtfi5Baqn7upvsFGIztE6cms4i92ukG/FfVwAiKbhqpGAVZOg/YEdReQIz3+9PduBV2n7a1w0332AvdAmixzW/ewrLFj9Atf0Bci2USixhA54fQLZ1CpqxkbrpHUnBt389Bd/PNMg6P0J3BJPM6ju850aTbOEZ3cnqI94RDTzxbzWGVdDfFhWBc2nhuujNgzbOtBxSa1MaT/nvpbkzFTccDx/dbLHQdiD9x0j26Xc432+1mvnyr8KWSQ4RovFpvNvzQO3cMBw55We8Hg82+uxgn2QEmsVm/Nxdn2k87zhWnkm55pYqTUSfd1Jbue1u6HXQHVXQnku6xFG976GMPUvmdKrr7c8LdXkDAorkr1DDEgby61sbzAjiUUOSaSVy3bj1Pni3ylAWI6JGa8RQd/tTzBw4LtppuMAswKs/l1t0+5yOc2Y7Og22ZZDbdlZZJTrc0cBzmIhcGtshdXXJnftvcxxgmp08izOdZQAdmLOAZ+ximTTKNgZ8ABozp3lYFYwT7LzCRZ4PD+Zkj7Kl0Z9NZIMIa/Ds4F2bIksJquqXTVtaWuekG08A1222XBmcti26bqeLfc7qf4KZjM0qZ8c9E8ADojsyTLGI+VtxGm+7urrtBnvDaZlrN7XhPOW/hLGkkAxYSfzvvducpOBHEqn95mQkmPLSf8rMRIsVk1d1vU5Xuli/Envib9d3ddJ8ycBVNOammu9EVJyYHX8dNN0SdqGMGDu0QYvZoWSbtqn0MBd2yeMIzD+swaR866e4JDUTQKr9HowUSV0IVlZPcy1goX+L/QzCbSmWVLcDd8AyOhmCk+UN5uubUE8sSEXm/rFnO6lsqYk3+Mp9F2e1GCIpnFHfU0J3bEcVbJ90gr4HL7+tYmco0s5PFrGptynxJd6MnzmMWFCbcuwKF7qK7J+hhc0W/ZV0xTFbynQx3e3Fef9jzMCmnvPScY03xvInTBUrIrg9XFusjB7LIVl1khiIm2tajlTV0P0oP5rB6O+jOhMLByJW4ejUVB94mI4vuoKrUJMulW0bGQqNetkVzBeag+4k6JHQpjqNaJnoN2i7AkTqEjhh1pPpVmZB4HKqX+AriTtSTNUWYKdjqS1hH8O1pTloN3ZmMzRajyenWrjoNxKx1pgkzM96NN0lmxkxw6vop/LyQ7sZc0GKECcRCCev+rUX3RFw4sQq09mBnqRbhk5QHw2WA6FygfLAk9kEw4zQFNxCLhRWJHoq/oOo0qKG7gbXhFNKdI3u8nXMFiOmmIo9yb5gmeJ8kVj6tMjFwkO5GHxS+Zvtk/DIovLLpBvuVWBIwIuIudJVP4KdWuAeqNRTDE6TGKo42jLYG5F4czoeIKGmueR3dEPY41IJIunFcgPK1N8RpZcD6l8Gt8GhMZeL0F+VlHqQ7D5yokdpFG7Xle4vusaDHlZKApXumaGVJNzEMxGfxqVeqLtAu1kq95DMuVFIjkeuecLyBDlMuso5ukE9Pp9vUBtvdc4V0mxv8BN2mdLPKKsFR+0A3CJwqSw3+LpZ6waJ7J/4icCTcRmI4arQLfmpFd8ewzpbzHyZL+9E4CpYM/3ATnmlYEZcXtQeqmVxLt2CkbUg3K9H2xYpB0dBJeGZQG9w4AinO/xVQ6JaBE8Vx5UtVkLtHFt3gX7icfhCeUFnf4KeW3DZjne4BTEIzCvAI1spBD8Hy4oiK5kkWxdI5SreuTPCgdcDzYve3MF+x5/Z8DUdHjM7w7NvVSUaFbukABKWaX0eH9cekG3RJ21kEAdFfJW8FP6WPxlEm3RD68Ux5grz3YeFJqrMgfX0avFd3m4Lzeg9TkrqcQ2OPn5jIxvIZV+Xh+QWVurvxCOJ90LJcLXCjUr426QZzw10sBLlqpSpR/DSkpgdp0v03dtHd1OgeG9El9TJg4S6X43daJvY83cmMi2NbaqIXTQl/XQ+kBDUFCyrdoAHLEqAhtwIL+TXpBtXtiGg1bOUNP7U0gEk3jNg6IVjeQfG3EAqq8I9BuZXWcw3dI2l3P+ZvK+huTMHJcpWDrDRPR8Tt9EKTuGavn6pM8sBJblBBLKcQt1tfp/sfMUjqnDTSpCvv8Gl0g/K1pssCzMVipkDcqCKDDTGI8l+Oe5XFlVXRDZcfaiZt8Y22WUQo6n/UD9wrWg6Nbrnqsjd4w2UpOsxOk24QRnehZwJ0lxr2NLpfxXtiFCVIsSHFXV04PKECoD5nh7fHYiahHjNxUQRWUYgcIqWFqfwXaa8eULsVSqNbbqzPdc+aIO8wXkl3easfwiN0l+M/jW5Q3qa/CAtyGSn6GLq7ghv/oOwq6c7AX6CO9SlRWlAh1tGLT+p3Qmm6u9EEtQRdlZq+6lAAZ0FJN0yfj1QmjVuwdXTxhiD87KDQQddVKBMZxT68PRrvPty0SrqTB7MS64CFYpyIa1DFndXu0h5rdEvLFv6i56u+KJgbCt2itCLUq5QK/H9LJZ9NQk9rIeYd6Oryeo8ulaV7UU23DOkFB0upkm6ZRXbva1KME1FFoVQ+BA5lr8CgWwaDSQLrgeKrmHSDYqsxBD3dEDyF7mwLrsqu0CejtTiRr1hVj2DtOQvMwRCMTjEEb/TsQg3dMip04/hGtb1FaPGptFX8+grhMdHollON66NbqhWFm3TXuTltIfjllZ5Kd2O0ETkxPx02R9lkfIdBU6vh9ERMvQo3R6jTU9ycMTDjlaG1arrXjhBpgZ6n0X14Fx/ZBWXQnQdOtmLz4ExRzSbdlcGiIutZvj+Z7twZxj5DKaJifuJ4p7lH1U48aE+lCqeSbuDQV5aIat0No6koDE62hTEiwlG3Bd11Hg7gUVcmjZEnAydMD9padIOfY4b54AQMOUJUJ9H9yjkLDgE6HMVbgy9QdbmdqkPcY3XPQBXdkBPBoTJlKuluUmCiIg3WLHps+M2y6Pt4K8FHEmp0C/tPzDajyMKiG+hy7UGB6aFWe51Md8aHG6yXhDHPY8xHXXuNZ8i9EwMWUXY8ANs0o3A1dINAYZfdDXjK1bfIpr/mryuiBgpM6W60YmlU6gkg6U2rq65YSOzMfR68UMssTqZ77oc4zRrJ69ti8dR3BgjAAnOYgoPT0gsTjEMU6t1xq+iGAaJ2MU07/yz/6WnL4C4X6VEeuERQIXIEj4buzi1YLt/aOmjTPYqwS1eJyYE99S6cSveKr3beMfEQm27snS8yeaYqGSfdLeF9h0Z6tYLufLeqn1/Jrp9ljexG43sOyxwXEHkxITuhhNKS7rw8E0Wa4ALdkWZTQj8mZlTNwi3X6zNOpFuYDOzobpQxpIb3RmoYTM9jqeFkKOpgQmqYGhBmxPruBa7Y9rJWIL+S1qIxf5lmmUZoMiBIxkwhTsxO6TzQ8k3TMpNFN/qHMimun7BHURhqO7SSG2Bbv8s1dCuGO9j5ThtXx62I/BOtVgtkm+hFWXJvjmKAjFawwwnHpvHaBF6N9sRPCAyPuLiS5aTRa03HDd0ITdIgBOtMxC3YSfvE+p41k2ROXJ+IMgNmhAPuIKyEFvmFJi+BuN3UEPgVeIum9f9qRMVFvBM/6FjfrezVsiPK5DDtFQrl9l6U/7S3GtsyJs21tNxN9jwc+L5M0FjaSu48Q/h5lOPxuQf1YOqtmXK6u5x7w+ZPtiQEY3iG2AmikjTGQlN7Pa10V+z61m5BkshdLdwITbQjh0zUIXizQe/XsDeIxSAjqolPlr3CZAn+GilVrNnkMZVedyvL74MnKwd1kDaNp6ax+erDahyny1+rX/MYitaoerFJ0nwgcr33ZXLdA6uNk22KdpJ0CoeQlal4IisPFTO00290n+fjhumhJw9tn+ubO3KKJmn+ZrKmjMRMlb451lP3vcPm4jaL9WV9z0D1Eb9NRBFlRPe6RbGZ5ZcTxL9Lg+Iu39cb4sOm7wdrO1GOYGauQNnUV/5UEKOXKUxn1Mqu48jzNgvTKh7NYmcXL34026v+YdLNxs2s2bNX8jX1Ojt60qMAON3CxuVGLtNc/VsaYvV9L4bDPMaPnBkC0l97ovZXCCbxvLnpgmzyn4pfKnSXe9FnOd2TNAbCibI7nbVlnsuK+oyniBK4v5xzOjBonBb/mYNRGt3frFwu2Yzph8LRsX+/No8eTTvj/tIV++2RNvEr60pUZJ3bA9TPk1SXqMdbBZY9PLndze+j6O/9rmOXeY3LDHervIOTcYniN8lkFYSIdpuTAs3nIZJ7TO0Mbfb8a32PCRosX8amzKr/CeCC6Q4cJa/moQLuo5vPLedJhM1t5Vjfh+y9nTWT5B27RSogEmXmpEymMkPrNMc/4k//HMLE8r96EO/HW6zmWA6QAfgzbqaV0e9Itxg19h0bGqSddgZiXIGMhPjvrx7EuyE2Oruqj6QFHZ8v3ck9/oa9pyAi4FoyoDfL7Hzp5mZzxf7fMwbE1JzFXkC3Q8ucDaaBf/4djAxA4sCV2U/M2tazw873vl3fQJmncSgTaDfi3j97JhjSuK6P11kCUtuuvKAsRjzn59H0pzfnPDw3IDEYWSq6L3bvOszxK/4MSyvpJtAS0ZggPf/ubt8NGURg/b02L4ciuhpE59+Y8/uhRWVIf53vQUpeewRKta6y/SloyfBf5MX+/cMWz6hIDflnbZR8a2RL4mPYo4OxbPxA0a56m8sVf4rJcMOo1wawOJ3eXvXI5yLJWp3hL46X18kZO+5XXHHFFd8PTSOVfMWnYjFjZ5xe+TZ4e3s7icVO291Q84r3oD9js5OedN7xr3T/OTZYL0mvxJXuDwDkTahr44tZPnOl+wMA2wgjxxbjZL3ZaI0mrnT/OSYRFiG5+NH6JhlEnpbWutL95xhyDrnJEdjNYpMB9q90fywy2EF3QxzFHle6Px4LJhpxtGho9RS50v0J2GLol7DHdg9KTje50v2heKWhJ6yPJ4aY2e7qFLqTceut36pIvfDv3lrfrxbjEzHAsjVEkmKsbOJq4pQDoTDcihep7HFv0T1apoQyRjHs20jmaahkGFdpBN9tT9pRcREYx8X+9pWvujqw+1Fs/gxhl0xulZt034kn5nGEGDP8LNrclJvlJ6lo7h+JZwCw7TUXJsFdnHxjtWjBW7o6zd+UUij2kJuTZEcNne4s9RDyvXSz3yCG8WzIF4AD3RmKEMH76XQTERS4H5J3cRj50MoUsAyUpyZl/Var1d9iMoVNQn35hUZ3lgYowL2xPHzOMH1Zl3T3PORP4UaO9+2z3vTxL4K7OIddws1ZSb1EvSG44RNjXtY5Pfk4KEtWRWn/oaXoXwHyK1v/XhAyvj6WjXfWgeHq1NK9YsjXHlzaipUK4Ywq3V5GnrEJ9kLBXRylR8hrrDUPqqd7ZAdtRYe6A92x2vfvabFwBRwvDQOsdfXhRqG2F6aO7qFn91vbByXdtU95vUz0Y71XjGiypnJUQ3eywfZjHVq03G7ANVN1q/bLxDwythpxh15VEDV0T6jdCJ27SiXdfYowq3vs+sVBtOW/XwxLvMyx1u+phu5X6mp3dROUdavi4TrtaLPsX2srJZZQ2KsC6y0Ca+jmr2LbdekRpQVbbybaRxGGBqtrWIuvZrPQ7Noiyn2VJlw1dL+Qo3Q3xnPmBdAqx/UMsUsDd3GC1ESgPgKwhu5F+zjd/I6+Lbe+2AwSX3xtfOLjaJ4YEP16yjb4NXQ/U+Roc6zq7gLjxcA70kr8EtDxXG0QX2lYMlZnmcSOJyBxz921xSNZeQhvL1x/G0ZfgXsu3oWWOGJ3WxuoVbtbQ4+UT3a7THC7mLk20D+x0vWp9Sp92xJcR1VPJaah43lll4S5IzcJ4NZhlL+sS55NfHgUsYrnMmaS/J79VomnaovtC8TYQxXNOFaKTv8rwFoLSDUiOBQBbfXLJlUiguLxBeVXIj747XbrfyS4i+N+XkUjC8rOzTuiNwFQ6RZ9wz2lFW0f4aike0FRu7wZXHe7HvtzMch8hKtal/I7UWhl8UzWbT9LsqYM/mnphRF3Qkm6gJuWtLoeZr0ym5OkOPT+K5fHUY+hoPYpJz8dXBNUPjGqycpbceOJp4OnaeTKVTYREf0+tw/zTeoR8VDrfWkIjhm/Gf52vZw+oHaIL9owSRiOqvvgzAPs51M/2UOnVVxk4pnWEy3p0khk4QV8umgkD1HpVTZTJp72Tgg/gtCqe3sR6EQprjbM+jhFh2W0s8Ue8/P3Hf6NZo08dkPG2m3mb8UjNZM5Qoo9shgEzCM+89LlZSfik6yiWadEpn09arXGWeXvslZntSoalvKvtbvR7C+G/MsLdyivuOKKK0r8D4QKaAWFPQOhAAAAAElFTkSuQmCC;" vertex="1" parent="ehwKiubLIth1W-K0A4Ap-32">
          <mxGeometry width="233.39" height="88" as="geometry" />
        </mxCell>
        <mxCell id="ehwKiubLIth1W-K0A4Ap-28" value="" style="group" vertex="1" connectable="0" parent="ehwKiubLIth1W-K0A4Ap-32">
          <mxGeometry x="130" y="150" width="129.55999999999995" height="130" as="geometry" />
        </mxCell>
        <mxCell id="ehwKiubLIth1W-K0A4Ap-6" value="" style="strokeWidth=2;html=1;shape=mxgraph.flowchart.database;whiteSpace=wrap;" vertex="1" parent="ehwKiubLIth1W-K0A4Ap-28">
          <mxGeometry y="70" width="60" height="60" as="geometry" />
        </mxCell>
        <mxCell id="ehwKiubLIth1W-K0A4Ap-27" value="" style="shape=image;verticalLabelPosition=bottom;labelBackgroundColor=default;verticalAlign=top;aspect=fixed;imageAspect=0;image=data:image/png,iVBORw0KGgoAAAANSUhEUgAAAOAAAADhCAMAAADmr0l2AAAA81BMVEX///9psUBZljbBvr5HR0q9uro6Oj38/PzCv7/29vZEREc9PUBAQEPz8vI0NDjHx8jj4uJlqz4xMTVVlDBprUPs7OzV09OJiYpPkSZlrzpXlTO4uLlxtkjS0NCrq6zJycpgYGN5eXtxrk9hrjOVlZfq9ORppEdhnEDb29tQUFMnJyybm5x/f4HM3cTf7tZbqye9267K4r30+PGWu4JpaWtkZGdXV1qOwXN9q2V3uFOJwWq807F1plmGsXCoxZmw1J6yzaWkzo17uVppoEqZyX/F37jT58qKwW17pGSYr4mktZqduouuuKe8wbehs5azv6kWFhwIS3VYAAAKGklEQVR4nO2cf2ObuBnHbYMFljBQXHBsajAXZ8U/lt5cx2lu17Vrtva2u9vt/b+aSSBABtFLSnxETN8/WiKw83x4Hj3PI2Gn15OSkpKSkpKSkpKSkpKSkpKSkpKSkpKSkpKSkpKSkpKSkpKSkpKSkpKSknoyXbVtwLl1q7VtwXm1f/Hntk04rz6/eNdtF969nHTahbeXLwfv2jbifNr/cNnvDy7+2rYd59L+btbHgPP5vm1LzqPrGeHrDwaT122bchZd9xM+DDiY/NjBTHr9KuUjgIOL922b8+TaZ3z9eUL4tmM+1O4yvv6fBilh2yY9rb7kfBRwcPG3tm16Sn247JcBBxcf27bq6fT5Tb8KOL/oTM921e9zAAfzSVcK/u2MC4jLYduWPY2+vzzx4Hc5YEcSzdWrGT9ECeF129Y9gf5xyncCOL8XfxpenwboSYhiF/7ctn2NVQrQEqD4QfqXsgNLgBPR1/d3ZQeezEHiQrHX91UHlgEFzzM/VBxYBhS7J71+U+GrAM5fC+zCcg0kejkou1DcWXjF4StlUeLCedt2frM+VFMMB3Ag7Lpp/+lBHhS3Fla6tBrAwYWgDw3/znMgF1DQZRM3QvsvqoDzeyE3Ea+5fDxAQVvu77lTkAs4EXKXlNOm1QEK2ZDuuXh8QCFjtGYK1gAKmEf/yZ+CfEARaz2v0a4FnA/Eq/WVzRiqymoijVHx+lHOUvArgOIViquaKVgHKNw2/ufHAYpXCeuSaB2gcFmmplGrAxxMRCv1/LVSPaBwafT2sYCibT3VtNr1gKI1a69q+GrnoGiFsBaQ26pJwOenRwOKtp6QgP93ISoaYG0d7Apg3YK+DlC456D1vehrPqBorVr9cqkGULRmu37BywcUbrlUv2XBBZy/Fm3B23skoHB7MrV1gp9FJ+J90aBuz4IPKNxy8JHPJoR8+lLTrPG37sXLMbW9DP/hi3hTsLYS8h+ffWzb2m+QVv0oZT2ggBFa80En/jN6Mb+5zP2oGv9TFh/btvXbxN385QKK9uSFiptmOPuiwi12c33huPA7jgMFrPKpPnMe81YBxXv4WYjjwvJHmgVc6zLifGi7Aji5b9vKJqr2axVAcWcg0b6SSCsOFLENZVRZFs5P+cR7OF9WeWVfDtCPbRvYVKff4O1/ui+VCCG70BOdfH9pdvsTG6PziegBSsSuKmbvf5qwASrafjZXGlPuZ+//xQB25Q8+7Iul7+ztvy86NQFTXfUzwtnPv+SAk4GgqySO8i/BXP72Sxai4ldAVlkqvfxV+XFOE6jAPTZHlPDyVz1No13jw2vD5G9WfVL0JMtMBkK32FyRv1o1e6/ryv0cL5G6NP8yXd3NZm91Xf/P5OJdd/Inq/2XN7/phFD8P/BQpw8K5lMWbZtxPmkEUB+1bcYZZSm6ErZtxDkVY8C4bSPOKVfRh3bbRpxTY10fum0bcU5pXQfs6UrHAa2uAy4koODyHgY40qhGRKdbN3g0/VdLj56XvOFDAHE/YCXSU1mem6O4up6fsqzQe2YB4YbK7xd6zbP0oUKUgAzx8VC3KaJt6ckpAphcFD6z3nb0IHtGC2K7nUSp6xGkoTWm5zSbgLk4dt3kKv35BeoDpBGIHMkjPxXLkGH+g03QxexuWUAMMmRdpRe0Hhn/4617Ap0CpoQe/YEBHJMJ+ocb9xQqAfbIdBtSKgZwpHcFcEwyDZ1tLCDJow1/1Sgm7+D6gZ/WnLEVBItS8bX9IPBtdnBM6sEoXK38k0o1ioMgCOkbZYNuWAxmKgMmLqSzjQHEoduoN8KWr26cac+eGgAB6GMLg7WJgHlgypnmHzaOYwJwsCjcItitN1bPP5rIAOviDo+CpYMc01SnvhdOp+lgvIP45cBcb9kKUgEks3CoZeco4Ah3716vgaYb04DGyjdNwzBUaFrecYMMpKrGOneXvXTUwNN3CEJzSwZc4CADIn+3AQhfCkGWx+2juQztxQFBA5imk1zc2zrmzgoD1YBgyfiiApikk3F+zh7jOmjrit5sh0ALI0NVkbONx/YUkKOjH8cBhCoIMqsNdEwM89ZQNZPRMDJVVQXmyrK2BlThDX0zaKwTC8l7rsEhcUJkOmngRUg1boogrwAm6cTNzw0T4WbHbljnR0sIj2k8TA0VpXc9ViFc0wvWENCdzhjbbaYm+EiFxzG9VHXS1weAvtyGKvJ7dMygkdo7GMVd+33AhectrKSLa1ropwaivzZGKqDTfGWoTnrkm/Ammzt4lF4bg+yot8WvSu6AtoRASceOEK2SgzG+PdkUjbGv12y38jXAdA5qdtLFNZqFBHBLD/EtphZaIPNVBHMXECyYRhk+AjTjLEx6WzQ8G6nfDhlgaGbvk4yqRr7tXQUsCiGJTBqYo1BRGq4xp0ZOUAAucsMM1VjlNhyhqpYBbQYwu1WHDHWFskjopb5WagFdMpKfywATxzZ7GsB48JjHmJsBag4DqEXZfOMC3kB4SOzScDpKk9/OYADDIq45gPEwB2EBk27UapJoijnYW/IB8xAlk9CsBcQJRU0dpyNAbwoGLEI0Nr7mwbAIxRNAe3heQDztDnlmWBlwXRuivREupWhluwpydlr2AjVPMiTLZC/itGrMsuEEiYRu+ESA6yoghlZRXmsjw9j1agF77hIHobPZHHMMH6j5BCATG+YpvwzIOJDpZHpp6DZrZgrAIoTsHBBnhtxEXDNN5SuAJEqXq4Axx8b1Us1uf4CylqAKiDGGLHwBGOYNzrcJJ448ixSAYV4mXAdXL+rCGGTlnwAOC8BsQeMf16WMvmOq+w1EuWvJip7J/rHCuomFxxHasA4eIFMmsgaEANIbOiUtVjofI4To77KKhBibuYsPAMLAdcfMRmCMcIind00xQJGu7GS3Jd1M09zFkO05k4LhpadwpW/Ep8Vb0l8oLlno4IwAl2T1M1ocSIcZjikWbr0Dd+ThDjSNxbFFzh8scqmHD1XVJ+ZpAB8iQz0uo+k2yxI6hkbTeOQGCEwz8HSfiew0ZR3ZIgtJzY7Tc5YXxx4+1azbDv5rIoSAs3F7q+wQxxVZJiCwSXtUbYUAMnHuAFH6u7TDBhA5mzFejtBD4mPLJLC4j4UGMm9okIVrQN5146zzEjEmbfQwl2LFxSSLfTqY/qfbzXYNbT/dgcU9UuyHyYYrDlKPbstmCd71d1G08/NbGay2vu9vVzgy9eQQDyR22EtkYgEcl6qxzC4Pt1EUbZl1ueZi2VTu+KQGZOOx5+Fzz2xPtDc1V7HrxmGA64XqdO5Z73i58bNj0tU0S37PT+4R7PIftAM0uwa4BUUrTfoH57lNoKZi1l2k6WGKXkeEpx3KF26+ue6aA3GDjkt6kGCNtma5Z+uCQhP3emAZRUtnEzXpj5+t4gjgrsV0QNTZD6y5SrD1w056T0pKSkpKSkpKSkpKSkpKSkpKSkpKSkpKSkpKqnX9Dx/+1ZBO5F4YAAAAAElFTkSuQmCC;" vertex="1" parent="ehwKiubLIth1W-K0A4Ap-28">
          <mxGeometry x="30" width="99.56" height="100" as="geometry" />
        </mxCell>
        <mxCell id="ehwKiubLIth1W-K0A4Ap-9" value="" style="rounded=1;whiteSpace=wrap;html=1;" vertex="1" parent="1">
          <mxGeometry x="190.6" y="198.1" width="359.4" height="330" as="geometry" />
        </mxCell>
        <mxCell id="ehwKiubLIth1W-K0A4Ap-19" value="" style="group" vertex="1" connectable="0" parent="1">
          <mxGeometry x="50" y="310" width="120.22999999999999" height="100" as="geometry" />
        </mxCell>
        <mxCell id="ehwKiubLIth1W-K0A4Ap-1" value="" style="fontColor=#0066CC;verticalAlign=top;verticalLabelPosition=bottom;labelPosition=center;align=center;html=1;outlineConnect=0;fillColor=#CCCCCC;strokeColor=#6881B3;gradientColor=none;gradientDirection=north;strokeWidth=2;shape=mxgraph.networks.pc;" vertex="1" parent="ehwKiubLIth1W-K0A4Ap-19">
          <mxGeometry y="30" width="100" height="70" as="geometry" />
        </mxCell>
        <mxCell id="ehwKiubLIth1W-K0A4Ap-18" value="" style="shape=image;verticalLabelPosition=bottom;labelBackgroundColor=default;verticalAlign=top;aspect=fixed;imageAspect=0;image=data:image/png,iVBORw0KGgoAAAANSUhEUgAAAMgAAACuCAMAAABEK7LrAAAARVBMVEX///9h2vtZ2fvz/P9O1/v7/v9n2/uE4fzs+v/a9f73/f953/y17P2r6v3V9P5w3fuO4/yY5fy+7v3h9/7F8P2j6P3N8v1hXqzyAAANaklEQVR4nOUdh5LjKtJCCeWs///Uk2TRZKmR4Y3X11VbuztjAw10DrxeT6Ck49BFB3RDXcTlo1HYYHFR89FG+tFgThCveZKQ6ASy/Tsfi/jhWEWdE3m0fH04liusPYF5YfqsH6n7UHTss0QbjPSr/1XrMETqzOf0VeOICq0rbUveY0VDmLWLkBunfqMSLS4jLZEZjWOsPNT6T4gr69zvK1Yj73c5JsnlSFVQQon7Szw2SKo1RQy0sYubgUgfEJO0EfDYeY3Ib9iPyTDdjUMX9VJtA6mjkQazI8+gJcJ6+3pt23UeKvWOkG68HmaulG9s/HsZ99FqkSGSNhginF8lA5NbaRmvCi7boVwItVJhe0nSzbQ8d7+kAwxFolB4NGwOkim3J206aXWJfTcLIiJNoq5RkJ4yNlLShMBi260M7o5OBfGYS/fewr7iUUKDVIaPcUyyMNpKTdguGgVvXEtXnwwG8UgHEdkNDaMIXdnpktovBm9IGeslthOnjYRJpZ3bJEnTxKoJMOZI+hCMq+isCwSgmYAKUQmlFS9fktkVmomJ3a7wtXoB2HZbD+SAMRMXWws7mtYiktEli2ZHEoLcS3a9VY6lwCQKf7IAuZaL+PP8equnjBGaf3KH475T5+JakM9kOLlSLJA5QiPL76/xUyjYad9zklW4XiQ/9rQUyNzC9SRg15D4J5L5HDpB7NEk6Mik2+gk7YQfYHZ5YrPNn69chpTReoL6tEAQJKNUPKIFxVLZbN41x5LRcIX7fMNZLen4eZBrnseB8freN7XHFaNe5BcEPizglN0oxgCMN3i3r+IMTesnrJ0oxs+zQXsVGLVn3hFhTAvv4CgyBROS4XnQytiWb0Qooz4HfqgY+E5meMHme+BkugT6ZGBGWG/IXTb30XwYmB4NPIlqiZOQpg5iywmeHXUunYjLN59cZRQAIi73Q3Yekd7hq+ERcTiRQXWWODhCg10tdxpJa12O1GiFIxgi7gPPqhjZBQlaB3zGXBDgfGe5L0TQtTQ/khWCyRFXyZ5GfPEFl/Fop9scSrKDroXT+lIQ6ocLgrsdSIUjkzGYrnXq1QkqBAIG/obHQRYzxwRnhjPzp/ONCLNVUcIgrYG+mbYsuFBQrOsUQael7BFgjzGGVcv5FLMHRZsR42UH88c3Ii6mbsxpm0dreIyIYO59MFOXOx/uR+bcVlTcuVJPutsh0mDOBwjy3EtEHn2QFV6uCt9zDCYPAwR7Cra6uz2a+Xpn22/wg/j3azFfFbnZTebrNjluubf+zjt9soYQnsYYGCLqY8aw7OUvJQBmHyC0y/hnd8kQOYGYNpO7IK/97CVzazllICCBaeWXrpCVX572VZZlvAHdYP87LsvXyi/eldJWMG98iJDVzEKIF9oWlyBRtyzDMPQb5Bvsf/fDsCyACIku9Nrx/BBe7XeAorNTe0rbuVn6XvT/ECMIv6/yfmjqdTKQAaP1IBErrm2JRBKv9ZB30aG0E3uSjAneeO1/qqFexfMpg2laBwwiSyxjOtVD9U69cFm+GadtmCTr64IeyXhYVv8Q4OKOUzsOVaTnoXyODtkPZxoR5PgBMNkeVdtBeDgGMzLb0B1whBAk8oKYhTmDzis259/3yuUTmJrscnZ1MRZwGSNbCr9afEmLgeApIuu6rqqq/BAdu/DYRcohUKodug69IxvV9K23/NlpXfRUUHE2IiJJqnXaJLl9J3d+t3KBk0XJ5TmRJFtmD6pjOS+V/TB2tplV/VLXQJ8RShjPHO9xbPoqS+w8cCf/Zf7sWOKmymzbtU0d5dtmTfv284XhgraCCT+/0u2MirnJM2JL2CQkq5rnivCejWHDglTNGqds0ZRdFbQBwfXgjsn0NI2LJic2XDaV4tENi9v8gjAUhW+B2dFaHpyh6qMvrayAJHnreix7+ruOBtwyJUpSgBHiEAIBIyuR7fI4UWeTUHFLnDemvyebZm5ObeNuE4dZqMWpAol6S1OZsnEdEudprkUENiyagqYTs9wkexcCIUjH8AmQ3ihvC0u/6abNOGg6jf5JluM89GmjZReTaKEHXYPRLYYHJkjadNO6ecaQabTTXE+pnkJPULnNasICibqeX2LYfG5yp4NpPRjgOzDwhTX6MbV9p3DP+xSKWDkOEuVSCiUkNnL3xgqfdc7b4xnqsC44c8k4pE0uo7IdyiU5Tr2aUq0yCbhb7JTiHESIc3CJix/YlxZulvzReB3kLU6upMosXSuSDJN26VnAAE5+BpJ9YAWNwCaY/IG7q/lPymmQeNjF9Zol3wDpTTtM2a9P1pHC5y3xhnRa53mdLNTJlcf3BygwAOPkilSwSF8x/ZiQ3HJybKZTjMGXTFHLcqqr5ISq1o+Xx1iZw65lzmuLP3OSEtfNXj4pLTe33hOY6tAsuFTT/QRpscjlbIvBcgXl8S1LB3mbDDCK2dym7DEhvL+xhAu6lWZmE5NO+0bc6PlaOquBdMdjY2IY3D4/FRmr7oqc+XxJdmlgMgVxF+PgetdlOjVVYxk4G8j3nd+y/1wGUNJCTFxX6KTgKuedfIZrnXFZSDStIbYU5mnaGJD3LhXZKm7SBEqhQkt2RYvbdyfWQGSRlQc9Vf5BIyuoa+R3YV01sWKBtIEvyXl53J6Ixls1BqJJORyIWh4RX1Qrqol0JT8Slt51G9Di3kL5GsJtQQUfJ+32q5E+qTpOw0TV+FptOIyOMPM1809zGwcVj1CXqTH96dLfo+mW6vHhlLZat+Ym0yldQKusUyXNdLHY3WwW5Uio8vEMF8rls7CdWWBnkQaekuKnoq8uTMNEvTmDPB7SXuaEuKg/wBqRs7ww9arUd4ioF3iSf491YDADgh1A65xQn4p3S7spry66AdU5LSaqbDcL6++FwoPufReZLo1OwJf0S0Oe+F09sZ7PIlKdQ10Vi6OcFgRjQrq6ZAcBEY1B3JGISXALR4IqUDlnYnfpwB3OFVkZcgA/Ev1A1ntENLZ0lS9xASwZ6rjdLBPLqaifqyB6Lu98j4hOzgP80sVgZvHZI6vrZxD5i6ul8XkfV+vriB0fbZOJ/XfYL3cl+RKIN9FGLRWw9CMQH6go8ko/V1FkXeupivIzSqN3Nb5UC0eUjwdT43/GsHps6kJYwI+pC8NhIqpGU1dyPtwPAc4HiMT5cT4sHzsfpNLHu2iQ6A6CK+TDHZS1n7uDRAdd8i876B67TGFmrMtU22pwmWZeXKZf4MTe1+7BiY0OK0BZc9iwglXJkMMKRkYtB3psITrHQE/HAj1dkECPmQYkL89/HHrLPIbe1Bj7vxsMVdrM7MlMang6ZTv2F+FpOXR+nfT0KwkDr93vKOuiewoHP8M/SeFYtRSOpMMoyLWexEKGCZNU49bEBAy8y6SaadByNwm2GsOS5tR+S5qTkZ2aYdUblm4CrWp8Jp5xKe6UeBYNTh1b47Z3SAVsDTbOLdhSAUFGGlMBe/esxsKEyglqbSe3bT9PzowvkjP7Z22FqU5nMLuSLgv5/1hhQo3psmtTWdNlibHPIBJuEpizvJkLfwnMR060BYuPEph3KNel+4aU8tVDpv80/0KS/3tuujExdNlFlmVa2cVRyzf0+Vl2ga278Ft28YbNTELOfq7hGwthTgBVxAmjBwAMLQQWQrFY1/3bxWLMpsrGaX2XIHpGZueBnVS+F6S7rFZQWbCCSj8o7AWVLaVSQWWQ9vGxscSV7ofTRe9iVf8lriE6lV8VHZfTOjYbdxVt/tui4w5RdOy/wYAgjC+MDso5WrccNeBnGTgrBP+GMnAozL/aJaEwf33Fb6AUSvOxhflgJgag9tS1VYKpXIW7rbCtEvwLRFgDunnFoF1+3vQX27wCWbzjAhNkGVx/zms7kShE42LM3d7B3sblOxq84FvuCHE8aRmg4iCSGwK23ME3QUqFJkjCFaff0QTpYVsqLpp5fPRv21L9TKOwp63bmEgTInt/27rtaTO9M2wy8v//cTO9x+0NI7Lx65X/78/bG95GKWVIBYO4FWgmQhJvsIaTzi1AhW6ZmfDPP28B+jNNWX+mTe7PNC7+v24l/ZXNvX+m3fqjhvRUaoDvlFAQrAH+k6OmciazIRXKDl/TSvq1Z2No+Vp4MynYIxEPnu0wCcQveLbjVx5S8fW0zW1N8wls37w/bQPVnv/6Y0M/8/yTzwe5ECQf8EGun3kize+jdf3fPVrH04+8PCN4zYfhZccQQUTUw45iHuG3PuyIeGpTKq4y9Lr5jqc2/T9+mtw+fhqmuyx/jtZA76X6HO1oJFPH52gDPdrMq5rUsEWpPhBsj2voDwQrqBQwEl5BdQX7k81K1rPLk83kv3+yGaT7cSv649nredF6XSbVjV5hfER7bot2HaVHtAO1LX6ZnzVXMzj2DoJ34+yd/pRv7YP9d8+aYx6az1G20x8/NK+9DKihkWDb2ZajLRHzxMO7RaXCRYUh2mp6Q2NKUWZjOTnBnsGi2+LH1FF+q9MqsIlQS5FfFqZhvALGjq3dMD+4C3Ts9QRWp76rH8HeQ1e0OTbuOZoqwVBjFZtKIJDLnlfq1gn3IyjpPJzK8J73Fn9kNZRxW/en+rMdLH3Gdf8HTdCqlI7BCoEAAAAASUVORK5CYII=;" vertex="1" parent="ehwKiubLIth1W-K0A4Ap-19">
          <mxGeometry x="60" width="60.23" height="52.4" as="geometry" />
        </mxCell>
        <mxCell id="ehwKiubLIth1W-K0A4Ap-22" value="" style="group" vertex="1" connectable="0" parent="1">
          <mxGeometry x="313" y="280" width="197" height="130" as="geometry" />
        </mxCell>
        <mxCell id="ehwKiubLIth1W-K0A4Ap-12" value="" style="fontColor=#0066CC;verticalAlign=top;verticalLabelPosition=bottom;labelPosition=center;align=center;html=1;outlineConnect=0;fillColor=#CCCCCC;strokeColor=#6881B3;gradientColor=none;gradientDirection=north;strokeWidth=2;shape=mxgraph.networks.pc;" vertex="1" parent="ehwKiubLIth1W-K0A4Ap-22">
          <mxGeometry y="60" width="97.56339144215534" height="70" as="geometry" />
        </mxCell>
        <mxCell id="ehwKiubLIth1W-K0A4Ap-21" value="" style="shape=image;verticalLabelPosition=bottom;labelBackgroundColor=default;verticalAlign=top;aspect=fixed;imageAspect=0;image=data:image/png,iVBORw0KGgoAAAANSUhEUgAAAS4AAACnCAMAAACYVkHVAAABp1BMVEX+/v733h////8AAAD+/f/+//313yL99cfv3Cr14hz6//7///n+/+Ps4Fz53xT265L33CX598i2trZQUFCNx07p6elVVVWXl5eJiYmHxT9/fXiOyEi9vb3p8uG93Zyrq6ttbW2FsUzr8ek8PDzX19f23Dby8vLGxsaomSoYDgng4OCRzFqKzU4dHR3n2Ts0NDRgYGBykVIVFRWfn59ERERra2suLi4AAAzFv80ABQB3d3eSxU1tkUEbGxsIAACSiy3z7Yz6+dTl3Gzq4Cbx3FvK4rCdznOny3bP4LeIx1WWxF/X4cPh8dGv1o+Lu03G1pxYd0BUZFBmgz6Igo+Yp5hOVUqNm4OFpVWMwTeOrFGBmmnF4KKUwWXU082DpWV6qkxYYk+Hm3fA0qdCVEKLtWxweG2z242Ys3m7pRzbxDaFdiB4aCTb0kRmbCXCz8AsJBRIOhVRUBqvuK+6uDqmnT29skf29z+jtJUlFAnU4dHc30wfJRJueFBFQhiOlIN9gT2SewipsUWPqHw2JQxsg1NaTBXTwDRORCYpKhVRaz6no5mivlxJWTVpuaSAAAAQrklEQVR4nO2ci3/T1pLH5WPJjS1wU1nyo7IjhwipcfxKbCdgUbK92bx8vb69FEghaaEPaAvhAg3QbW/Zu48+tt3+0TtzJNmypAQlNykNnN+HT7CPHrG+npkzM0cKxzExMTExMTExMTExMTExMTExMTExMTExMTExMTExMTExMTExMTExMTExMTExMf1hxIOOdKAoisIxf5ZTIv4Iek1xwUUfXS/7w//+EsX33ji03gK98caZ1xAXf+ZP5yeOopWJN8WX/eF/f6XO/Gs6eVjFYrFkMv3m0eaIUy3xzNl04ghCXFGcUUilRDGVOvHr+J2UAlyxIygxmY7ijILgTKSviI6KKxYNF8cRkkqRk76K300na108L66uDdY3RPKK2NdJ4RI4nhOIuDpXqG6qau/PYkpM4dgp10nhEoGW2F9XC7KsypZlrffB1LhTn6mdmHXxpPRvVqEqq+rAkuVNazBVSpFTn6mdEC6A9ZdeoaBW5en3/zo/AGiqOrddIjhJCqcY2kngEoSUuNorqJZcHVy5/YGpX/0YXLIqy71VjPmieHpD2Ang4sXUxtyHEOKr1qVr3aIipgzz+paFEUzd2Uid6kny+HHxpL/2IYQrWb71WVNTBFEQRdG4cP2GpcqbsrXWF05xCDteXJg8lP4CZgS2NP1LtlVJEYLRSiCCIt2cnoNZskpjPs+F1UXEp5O//MPqmHHxpe2ehcnD9PvZvG6MOV7l6seDgjpQ1Z0pg/jLSD+pPyiz48QFXrbRUwswCQ4gaF0wuLFLhQz/IwCmgpeqvQ1INLwbiZTbR8ofitcx4iIE0lJVnrOsS7+VpXOBZiuU23bMR2Dr/TFeJNPMh+vVxCWkhNK6Hcxv3W5qFY4Ee9M8T3hF+uQGGphl3S2lRicgGen1csbU6gBYqRi0cjq3z2XicEW7OY0Oq1qrI29FXCd9qceh48JFVi25UJ0bXLn2gWkcZBIwVeqtrYG6qRYGnw4d8jXDxYtr1YIqz3/WLRqpgx1IIET8CELYpqV+rrsz52uGi5Qge+hd62iK42C4jRc5UcB/mHjRBAwSM3xLiFHMYcT/VXSaFKcfl2cdIzYZSycmJuEnvNof1/QdfehdPAISBR5bE0QQS1QipBp2I5pw5xBX/pyz/+nHhesXscnJydHbdBpx2UN+Z0Rct3I8caZD0t/enioREYCJ/e31AbKR53p3+25flYg48vbx4DrA+8c27bffvvNvYPwAXI5ljaxtZSLhMbhQXG4DkEyp1odfVEQRayLsEGKupcL/2IimB4hzEXGFXAodco+k1+rLOIhnE3fAfiNWwQ2jAzwbDsA18SXqK4SThndfvXPv/v17T+s2rlBnzI3eTxXU6vwFQko92CBXqXHJarWqDj5NYb2IuKqRcMFE67/Aio7j9mtF6mYzkOSa3hpCN3CTYeabmbJzDH2TaXal8byXcHqrnMlksl2tMk5c0fDE2XLOe+YDcNWX4qB3kgnwv8Tug4tL9P3CvbOJdCz5QlwqxSWuo2H1bl1CTWMFpPb+BlMAxaVGwUXKWf+Q0YCdlbiBEPK1TE4yTSnfmCmOzjCjg01IizN5ydTts0gNfGNKrUwt57l8ojdrXa1omsVW891OZZQHwombLTigqHUXPWc+CNfsEFfsp4dxmxboUT2JESwSrr6lYk10O59rtXK5Ox+jT35eORQuYyY3vol0ugS+fMBF9FpTd6pzTop3XSdEXFyzZrouRoxOw3SreD27ODQwIsVzhls+KN246X6cSg3YOTK0eN49IBKuWP0RsqK8lpaWHk8kJiPi2sbmxDWtYvA8L/DK33bUasH6mj8ELvjow6uw37fa+BNwET2uDR0ILiubtaMW4uIynWEEJ0a764RAGo20uO5sMOHUI4sCeLZ9EWOhNQxZ8KICv+dFuGIurslYchkoXYzHLzvMvkxGxTUFuLbyhoj3kOE39WeolHrXIRpFx8WR4kLF4z5mHI0DcSkLRW+4AYPqOkxmKrmmZ0u7O7bfEAu3OP5bST5jnyDfHI9jJnr+wbjSDi5wxcRzoLT0cK+++2Q2vvRo73xsMmLsQlzT3yApwU5c1weD6U8qh8KFVzF6bdi2hrg6+fFjiLFob+Pa5swoorsQAick+sJ4j4kzbLsjNdN35oxjXi/GBfPg+dn45YvwKp1+9vTyvXoilo5sXZg89KY2Sudo6OCFSr5bxh5WyMy4bz+CcJmc61ckazMiyoLeMPxctYyzf7k1oqXEK/6vwmhg9CZSxpc9kCxiga/E1zYirc5hcF1GP9xDt1z5KpEOSVP3DfWYR0C0H/TW7m6v9ktiylAUgw/mXTCRh6nosKk5kxPJZ4k71NH8FIjRQLMA61r0GFc3HzBcomVhL8TlG6f7Ai5f8kLMRlRc8PL8Q3TGB88g6kNiHy3vorgE/lMLstPNTZqlqqq1tg15vRiGK1MOkeNuxAlYcIE150LAZhYDCRnQtA+YKXtSgqBxodvCIDFr/nGJWhdZ0H24Kl3uELieL2GMf1CfSGA1NIGbI+IyvplGULIjVS2s90UxNKs/qDlIcm28Dt2d0xBXNyTdN2fo/w2PLxbbIVGRNDFWGvGi37zsr6fsP7f7QSLhSizHL4N5Lf37/d0VSOqjO6OYEg3pk/ktux9I12Yta+dbcpgiyN0hD6lCe4gBcIUcQRTbCz2JpWtwvh1z1OtamEiEnKYSb4WNR8X13d/dvOvxlxM0dkWyLhPmQ55XzFa+3Ln9/aVLNwaWXLUKPWdmPBQutATPlw649JDrpAmq/dMdyobYLXhdk3pdK142QypsmDPbkhFCLEKoT0LFuIdJ18WLOPB8NwkTYyTrMoWSKGJJbSgV/cKFVv7OzYFqqQOJJ4fFBVewmG+PpkLAFbboQTLFcVwOwAAuM2NntEq+tlCWlECNbmgz8WZLN3zj0XAln+0+ckogsLHllWQsGckZ+wV5sIY5BECDX2so5heyJVv/YRzautB/vPZEs/qQnTAm+XBlmiFq27iwGDDz7YV23lT8vR69lX230ZUqXuuLaF3J5MTyQxdY/MlKpNh1CXBtWr2v6Tq2IOBKI98fIC7lCNalzGS73rdRcTW0YpjMERgoF4v5bCPb8hAj1CQNs9VstPP6cDwCLki0sJOa2H3ynMKCFOynZIQ0VZ2/gKPWNwovcpQWx6e2cdn/7SPg4totzFY9uCI6Y0M/cM51iQGyzkLOfzpEpudrHfd3heCaHMcFm5OJyQQmWyt7j4EWJPj3k4lEpJlxDqbDwdQ5bNSjxNWevClvfWAcGhfpQhlXqQ1nvLBcPTzUt82wM4ehJnqjE7IBexU1JUqaumTjSmN2ijNkcuWdePziUvzRRCwKLpOsWpg77ExtbGz0N1a317Gz2vtFO3QiQaRFbG+Nim3AFYLBTiTGcXVaYWhsDn4uRiNHJ8zAhq5TtYbjmhzHFUusTNCxyWTiH2hys7vpSNZFzn1OO6k07VIhyhc2C9aV8qETCUiEKCeSawzBxEMwEJM2d8Zw5ULSWcjGNEKKgYwM8mCIX0ozUIxyC/aX48M1mYaovvuf57H9V7+IYQpjV/K75dmnUPukJ9PJ/8LgtbSbDo1dwxE3q+e+/e8d2qWnGX0V7zb5vmmKiAtX/iPiIsawZuw0h0VQNgQXzUnHcUGlEyyCuBnIT6VswIw4KDoxLAYOcApPP65Ysg72s4wLGE/jSzSqJ+pP/g4uuPcsiSwfYIL/sB62tDGdG94WMSyCeOXq1q2BBaBw2Vae/iHzgSnQrD46LkKaIztYbLkldiYQvMCZ9AAuLpjPQpQC3ybmIvE5JKHFGLcQPLNjox5ckxikknv/gy64/N3uU7vfXE9jc/AyMFrere/u3aep1+Ok/6kNxxmHkdgJ9TAjGnrrzp0fqH653ckXFQGXzogQeeEMcm9Pv6vi9rsWtICXEanN+XGBxXVCSnE8NpiLEDoxhHwYt5TyWxewwe4DTReQ1uMJ8MqHWDDCm9nZuL31iR8XX9qUVeuLkkBv1OV5O5GgnV0iCIpuFiVNk4p6xeBFQYB//Sm0ta4RBZfpacdguHe7qW1/32DYHpwZT2j95gU1DrXCtj/8wZeAnQotUJWTtvP5xnCBLz77MY6mhKyWaJMLAv1PCzZCcMk4FkI/1gPLsqm7hTnMGUo8SXHAA3H94MxdoywHu6o8L5DSlAWuac0PzfHAXv14b5PkMCFHXN6WKaXU6TovvLigkK75MnaFToBAPtAGtC3R8JfvxFxwov+Zs97FV8iv6s+dNQzMGJ5AvQODWAItUVLYsv+5ngzegfPtjoqT4M7qOeyakjVZlX8Yv0yXLD76grfZWzeuFYcb918J4gI2gJGMZvW5tqcLSLhu2zZWHy6OK7e95gn1gVMekGbbCxIXPewJWPIuedAI4H48D640Lr8Cr+VZp9j536cTiSSu8SdXaAlE185ml1cSiYQ/dgn8159j47Qgr6+KRMSla/l9M+R+XSJsAMpNS1UvffbrcMI+4Ha4bsffIVYWJUJxkVxNGpbP+kzTbR36cXFdmFmH2by24LSyIc/qeE4A5fZwiUiL5w3PEaOkZdy6oHQGA9t958Hzn3+8t1eH9DSBuCA/re8t3//558fLe7sryckgLo7w5vVbsryJScOcTI2nMz7B8KmUwJH+miWrA8u6le1ooxvBSKbRzIaqOeNPgjA7Mom9LKu3F/MQESumllkYLaJxi+O4IMVabORM2E+XugtZb2Arzrz7tgQb4AzNeHe0AKk3403NOeLdUZAUz5wNyejp87Dpsfw1maTPyLr3TcCbfxm/N5VwinRzoMqbdIW/Wpi7kjfGnjgQIWyV7tLHhFS8i1z3riab0j7SAjkQ7u3gwpQgl23UajPdoje7KgamPM7MtxdrtUY2V/GR1HNNOEFtpqyNO6ailekRzZzng/LiWVw09CmWdliNhhBVwhmh9VDShwvvT638enNapbg2rXlIR723p0KIL21DRAP7G1y5lv9o/Mbo/VwxUJC4eztZgLNDoGYOOcJxwEDuMFxkIi8+ggdnTPuFtJJ4b1LMM+bekWO/TQasC296gyTr6s1bFvraL80LvOjuwdtPgvYKWAkBrG7wPpH9FQ6M4hpeabTzuNcfYcv43TfDDfyZP02cDwr/9EFgKDE++qYQfLoH+x2tfLfc6bZ0HjIuMSXwtNFFhP5aoVotFOT522VJiXaBB117eL/rpMWL7721v94Djb1/y/M29M9u4PehVPSKgq431U+BC4p4KyE+3Ij3eW391tQq4j9/+/dLwoXx1zdkNz7dYZeJPQJ2AsJXKTG1z6Nj1IbF0lQPQthUCVc3IC2l9ypBhL+W+8g4jkeoXhIugV79mJw/buO8FIZ/JIjuLrgvU5gW7HNOUGp1oBYKVbW3WoK09P8K2MLpQYQ3jeP5KwkvCRdcddizXy4ez5+AGKf3oseqeePqliXbC9frctWCjH/+t+6FY3tk5SXhOimJ+PzPDXzmUwUr26yqW3/taAp/fFf4auECoxQV6ZNpi8asOfpw47H+CSuj9UrhwvvfxIp2c0eWrekrmZx+4KMvR9ArBGsoXr9+c/77a3eKxw3r1RTPGxc0zfzn09LXRHQufSUd58TEYDExMTExMTExMTExMTExMTExMTExMTExMTExMTExMTExMTExMTExMTExMTExMTExMTExMTExMTExMTExMTExMTExMb3u+n+qP22mkvvx/gAAAABJRU5ErkJggg==;" vertex="1" parent="ehwKiubLIth1W-K0A4Ap-22">
          <mxGeometry x="45.36697702060223" width="151.6330229793978" height="83.8459786053883" as="geometry" />
        </mxCell>
        <mxCell id="ehwKiubLIth1W-K0A4Ap-24" style="edgeStyle=orthogonalEdgeStyle;rounded=0;orthogonalLoop=1;jettySize=auto;html=1;exitX=1;exitY=0.5;exitDx=0;exitDy=0;exitPerimeter=0;" edge="1" parent="1" source="ehwKiubLIth1W-K0A4Ap-1" target="ehwKiubLIth1W-K0A4Ap-12">
          <mxGeometry relative="1" as="geometry" />
        </mxCell>
        <mxCell id="ehwKiubLIth1W-K0A4Ap-25" style="edgeStyle=orthogonalEdgeStyle;rounded=0;orthogonalLoop=1;jettySize=auto;html=1;" edge="1" parent="1" source="ehwKiubLIth1W-K0A4Ap-12" target="ehwKiubLIth1W-K0A4Ap-6">
          <mxGeometry relative="1" as="geometry">
            <Array as="points">
              <mxPoint x="670" y="380" />
              <mxPoint x="670" y="380" />
            </Array>
          </mxGeometry>
        </mxCell>
        <mxCell id="ehwKiubLIth1W-K0A4Ap-26" value="" style="shape=image;verticalLabelPosition=bottom;labelBackgroundColor=default;verticalAlign=top;aspect=fixed;imageAspect=0;image=data:image/png,iVBORw0KGgoAAAANSUhEUgAAAOEAAADhCAMAAAAJbSJIAAAAilBMVEX///8SEhIAAAAPDw+np6cNDQ35+fkJCQkaGhoGBgaioqL8/Pzl5eVTU1Pv7+/Gxsa6uro0NDRcXFyamprt7e3d3d3X19eLi4skJCTT09Ovr69wcHBMTEwtLS0nJyd3d3dDQ0M4ODhkZGTCwsKBgYFoaGg/Pz+Pj49QUFBycnIYGBiDg4Obm5tZWVnGhX9uAAAOAklEQVR4nO1daXuqvBaVHUJEkUFlEEVRVGqt///vXSABE0SpfdtrPE/Wp3MoQ1ays8ckDgYKCgoKCgoKCgoKCgoKCgoKCgoKCgoKCgoKCgpyYuFar27Cn8IYraJdPH91M/4O+i4CDOtd9uqG/BGsZcFP0zQMydJ+dWP+AON8XfErQcAbjV/doF+G4XoNP8ox+adE1VhMgGgiTNgt/plxDMJP0G4BMPJf3bRfgRWvBQG9AsE2fn/rOHd3NwLKi+rBfW/raDibCNBdguUwRpvFq1v5H2Dtt6RbQK/AZhq+63Q08lQze/hVoorSr1e39UfwE2Q+ElBOVInmua9u7tOYT4F8j1/F0YTNW2nV8XymdVnARwAtfx+Ocze9YwEfAcPHm1gOwz3BswPIhhGWjvHq5vdjkaOHFvAxxySU3Tpas9UPBPQKDKsvmaejEU/RzwSUG8bPS/xqHncR7KJeCwi9c7Rw5A5yiqq9ifpcNASw0y/Q1w2YaBsJQ8cYeidg4Z6Vrou7xX3OHAbIX01IhOEcexUowd6M2gIj9x5EVBQIkkCedJUR7HtnFwZvHzRPBMtt/4jDaSGLdcySvgFEsF6KvrV7GPY/lMjij+t9A0jgcpPotuId7hNV0F/C5xZ9DMHrTDlZX+ueYXwThgB7v3s+GX74eP6+BcPCDRP0hSGMppFtH2nVN2CIAevC+C1WnxfBYTHc6L5WlZ4hNqNc4GftCrcA4CRcnO/v+kKSMywthMPdNbZndNYVvttMHNjlHZUjN0NAUyFGsOO0oYFh5/DWw4gPnSpHZoakFefZzobwd4G2EcJ5I191qBx5GSLwckGfBOe224MhzQP+lsXMu1E50jIEIg6QNbstrpV+52TE+9aGs2kn6CRliGEi5sziCe5WthBNBcfTdj7EYZSTYaEobT58XRzu+2ZlRV8QVXskVBolZIhMOAhRnR1G5qMwCZOhGOrahVZtOkQ6hsjUUmFIDL0/8MewjgXr6E+beodsDAt+MS+ftjP5VmaRwCTgOY7j1ZBIyLCsA/IW0PA33059A2wEh3yep5XylYphu5brf3lPZE4LAxrzHMdOuAWpGJb1eF7DWPG0N9ckwoRpzL9h7BQqRyKGqS6k4p3D4+p99zAmG1fwE9ypNAzj0Oc1TLA5/qh2UVjHs9BRfihLft8QtH24Jc8J6BXk83g27r5YEnwjof0AyDRTp/8jL0Tw0VuU6APASs66TIGx1ZM6KwcJo94FDDCcWRIWZkoLkfYqUNB24aV3kU0RO0q43s3OLtDf8jLw9/P+njBh58o1jOPFuXOBZWsAZ9UMGzuzfn+uCMIciTiWw9JnAQvfM6ubPHZ3vQOOIM2lWe/mfPROLQJpy63r9wpMNJHFcujfKK6NWrWnsZUP+yv6snhtPbWnsnofdDxWGM9/ovaETHzXhDspeeggvAVDE6cz4WZBQRr5UXvz2hM57gXbbSxccQ+CdU7euPZULuIWtWHwtYWjLpYQ3U1yT1RlZ9gO/AfzuCxOmHARElYDO77nDsnNsEy9CAI6zk4saw/RORM4+rHXqVWlZgjQ8kgW++sSGgzbUHStuxNzEjMk8CGkQAf27Ih4pUk+01yQYKOwjjdaVVqGBLxMzD/ER9wKCxExJ6KZNOKbir6kDDFJxOEZWJOuyL9wdVocB/mQyFl7ijn5QpCchAk4tu9H/mWdSnhTsOStowmy5Nr8cx0ooCKIF9eizePkgcdTKNxMdMndacTux2Yqz/6EsbOvVj8TdPkSi2tZXyBokqU4Z+3RpHpEti1fRjwFAG8mWgjnpnzfNYyJWPMfBEU8DTB15VleSuHPVntxt4TPKkh9KKLjULQczulDxu2lhi82U1+h7+aGTZiKi8PmcqYTBWS7p4ozEB1kyVh8D/Z++LB8fwtMhidpNGcvygVsP9nZNdRlrMR0wP/JzrUSBLZSGYi78MOuNWrfIEiO5/fYnlfWSPvtYBuFXdzLlOXugZ0tn9yDCGgpnYl/DCtedQ0jBuhaEIxhJWG1qQ/W6DbhC8Pc6dhfU1x+P34Fxn5LVHG1+MkIdq0ViLC8s11BfpQbvsiVH9Ruiw7NZVR4pdm78qsQb82KDMbRnru8T+hlgpP3PE+Bg7XZAsbmunWiQBXNY/DCt5yALSwO0fDg3khiNh0mb+Zu34Ud612+ijWK33oCKigoKCgoKCgoKCgoKCgoKCgofAfualJCPODPvVQXJx8vOi/O+Kg+v/qVFKQOFdCIu2avgOFFlVqDff5XTgCji/HQkGNo74DVH151Ir5Ba1l/xjCk70cofFUl828ZjmOPnQKwfFmt/W8ZLlIqoyR93XKJP2VoHRjB5IVLPv+SoXGmBNEwfGEx5S8Zfmm0Lg2TV1aL/pBhQAu2Glm/dE3k3zE0IraMEh54E3P/d05UHc+De+sW2gztxX/ocIHhlq2ogPOdRgWbT+ptJOd26xZfswricqcRvZi3vD9D32H6Ii/sWGHKMTScnVndSA4//LUajuE4x3RZDOw6b7XdY70UERGAVDw41tnSJq+EPZbM/dqKZw5+JfyLNkG76VeG/rS+s+iR1Y8Wi3EM44iZ+kmnTPh7ca06aKLPs6/+ij75yeOy/U+81zvOxPV+CLz2MrCGoSMcewbQ3oL7HMPFilnCqNPUO6v2CieCT/x4xeuqs2HDtYJ6uIhw9431m23BMGztxqgZ7ltLH5Hw8icZ6nNm6vHwq2v+B9vbBXoIptxoG1O6nia50rGT6pJwLJjesWCTROI3GUMN3yyYg83TVowxjMJ8yCzhvktTBh/Xg8xws5RL7NOZRnv+uulQZ1e4GMWpN8tSTcP+Y3pCGGMI6+SwaTZ7qRAWt+I+wfC4ZpNw17WyZ7ysCQKY0bo5UR5r3HrmeUTFdNJ00ZIuh/KuIz1msl7uOp25cVgvFoOLcLjWlSECWK9Wx6YviPdsWNxs1sLsBZ1Wls2xouOnznw+9+P6hxHMhJu0e6ZXakJWStpSkdPRwDCzbGMwNuw4YRT57aZXhhgOi+KDc0uvZ4l5eHIqitvRkNZ5BrzB5ihozZZQ/ZO1bH8dRIPdVec+RtWgIk5IrZQqXI6PRV9kbrmGNwzJZ7OpzZoyPfHs2d/NMXrMFHZuqdep/JEtpxNjOsdwxInXkVFkpDdABfAqpLMhm6rcy332ECd9jaYZcjfO2UyB83NWkTEcJkNGsSvuzYF+T+ffXcsk16UOu0Q7nmknmF2fYpw/BIM7oRdP19tqhuKvCixWJn36ucC11jT7U60CZjf6mPUeHMQd98xoLa8tY3qEJPTV1chjTk1aF/qi0OIwH7GHjParEYhNocoae8+ljxp7GNSx/a2cB6xhrTlKJ4aZcs3QOV0zDm/6ZUFVj5buphwmZptO3XkT8YPZtnwckedi86tP49b5mUvbaXOOpJpxra2stexyDK0t054lnUpIkcYZMNdjGht41PHMdXrUDEPxgz6T5+e21F4ZGvlnPRVbckr7DrcNSQw3omR8UYkrFaNbzWxy5DRInDzYYwNXNVYzbFFhac4fMxzY03oqtsQxq7r+Rk13MBwsKruKtLjosBsF0pjVboZXaa4Z8g77oDEYP2c48Jlfg1sBsFNNn2Kuio/SlA5OeIY21bDmbhBUmg8NeS+rngioCx3zsNXTPp2xT26LFiJgpu01YgpyekfTHKlPJsZ+WdU4sl04Jv0HH34wTYNaE5EC3zA0j+IHqZCj4X9gOJjVQf6Kv8emZswUvQGr0wD7F6pfTlRIzYPwIjaR+rznxh6K521Q5SzM7KcZsoBOQ6aQx5hRdQf8zwMYu1tfpHph5Xni6Ej7W5y7VIZbyea7WYxWssFlivrw3Kr/FkOrDoOF3ymm5qJ0ahqK9pm2gmxbPhDzPBD187zWoRIsSg75h9ysHa/VDBHh3I/FhXXpkz+f1M55Ox4bLz7fYteJ8CinCSjbOSEWTra3gxp7zpeHvfhHu7bu118kNTIY7lu/FdR43lgLWcbLclmEaj5bbWgzNEYsEiYnrp8dr9aylzx2Y31fHzMD6Y3IsAGnf263RsfMH7voWemyBVmoEQxe3uUQVhQvMzfLMn3JTmBAuNVpTzOs9b2GP/nMQticvA0QDa/xaBLfzKLxoRlE4rX/aExrXQbbQ4EJPR7D1KZZZ3xYRsCR522b/cbk+GzB6LZ+aDEVYm65qWhfrrKHuM93VTdGw/qGjikzb07tqyxGvRGcCApLzGIgzOVNzKerth0VUjcxbyXQOHZlojpLjPbKrP/ekfJZdO05xTASDt1lDG83wvcamm8xHHzVSamTaB1a3zPvJb7O7EZIu2LV4OanIQtJHImnuzGfJm5t3SQ/+Rk6HUgJTXABT/QiET48zteENPk9bJLtvXSCH7Ee6nY+jDAyrztoETa19gE9Bv0+ZPMtbsYREbz+yeKMuJjHBbaCz2lckuqqJyaHF+c0Qmztxnp1vp+5pJoXR/dyRtkyjVjdArTkMmq/yWBfzwbj2SqidQsYHs8/2uBnZU4F8eE5u+q0OtfSw81ucjmcwvhB/WnE0qQPiqzFi0676WV32ORdkkA/npWNmuv75W6yO+y//m8FP9u3Hued51TT4M8embKtMqP4rU9aUh34Pd/TSBqeTWy+CQxnQzUxjiQ7AvlXYM/yZVqvBNi818kJ34MPWv1D6+aTOb83QXD1mM3nnY93QNCUecheJuX3ewjqZN36gTvw1igZIgJ4Jcshgb+OoHCuPo+bmYRHsP0S5iNdj51/0UooKCgoKCgoKCgoKCgoKCgoKCgoKCgoKCgoKPxb+B97/M0tkITRvgAAAABJRU5ErkJggg==;" vertex="1" parent="1">
          <mxGeometry x="140" y="130" width="120" height="120" as="geometry" />
        </mxCell>
      </root>
    </mxGraphModel>
  </diagram>
</mxfile>
